HIERARCHY
ROOT joint_Root
{
	OFFSET 0.0 0.0 0.0
	CHANNELS 6 Xposition Yposition Zposition Zrotation Xrotation Yrotation 
	JOINT Hips
	{
		OFFSET -17.1583 93.1646 452.98
		CHANNELS 6 Xposition Yposition Zposition Zrotation Xrotation Yrotation 
		JOINT Spine
		{
			OFFSET 15.7357 0.0 0.0
			CHANNELS 6 Xposition Yposition Zposition Zrotation Xrotation Yrotation 
			JOINT Chest
			{
				OFFSET 8.98455 -0.406207 0.0
				CHANNELS 6 Xposition Yposition Zposition Zrotation Xrotation Yrotation 
				JOINT Neck
				{
					OFFSET 16.3773 0.0 0.0
					CHANNELS 6 Xposition Yposition Zposition Zrotation Xrotation Yrotation 
					JOINT Head
					{
						OFFSET 6.45672 0.0 0.0
						CHANNELS 6 Xposition Yposition Zposition Zrotation Xrotation Yrotation 
						End Site
						{
							OFFSET 0.0 0.0 0.0
						}
					}
				}
				JOINT Shoulder_L
				{
					OFFSET 12.9942 -0.242716 4.98039
					CHANNELS 6 Xposition Yposition Zposition Zrotation Xrotation Yrotation 
					JOINT UpperArm_L
					{
						OFFSET 5.34809 0.0 0.0
						CHANNELS 6 Xposition Yposition Zposition Zrotation Xrotation Yrotation 
						JOINT LowerArm_L
						{
							OFFSET 24.3286 1.87007e-05 0.0
							CHANNELS 6 Xposition Yposition Zposition Zrotation Xrotation Yrotation 
							JOINT Hand_L
							{
								OFFSET 22.2916 0.0 0.0
								CHANNELS 6 Xposition Yposition Zposition Zrotation Xrotation Yrotation 
								End Site
								{
									OFFSET 0.0 0.0 0.0
								}
							}
						}
					}
				}
				JOINT Shoulder_R
				{
					OFFSET 12.9945 -0.242716 -4.98039
					CHANNELS 6 Xposition Yposition Zposition Zrotation Xrotation Yrotation 
					JOINT UpperArm_R
					{
						OFFSET -5.34813 0.0 0.0
						CHANNELS 6 Xposition Yposition Zposition Zrotation Xrotation Yrotation 
						JOINT LowerArm_R
						{
							OFFSET -24.3289 0.000322201 0.0
							CHANNELS 6 Xposition Yposition Zposition Zrotation Xrotation Yrotation 
							JOINT Hand_R
							{
								OFFSET -22.2915 -0.000108084 0.0
								CHANNELS 6 Xposition Yposition Zposition Zrotation Xrotation Yrotation 
								End Site
								{
									OFFSET 0.0 0.0 0.0
								}
							}
						}
					}
				}
			}
		}
		JOINT UpperLeg_L
		{
			OFFSET -2.19248 -6.46944 0.0
			CHANNELS 6 Xposition Yposition Zposition Zrotation Xrotation Yrotation 
			JOINT LowerLeg_L
			{
				OFFSET 39.0811 0.0 -1.23785e-05
				CHANNELS 6 Xposition Yposition Zposition Zrotation Xrotation Yrotation 
				JOINT Foot_L
				{
					OFFSET 40.9854 0.0 -1.26872e-05
					CHANNELS 6 Xposition Yposition Zposition Zrotation Xrotation Yrotation 
					JOINT Toes_L
					{
						OFFSET 11.7543 0.0 0.0
						CHANNELS 6 Xposition Yposition Zposition Zrotation Xrotation Yrotation 
						End Site
						{
							OFFSET 0.0 0.0 0.0
						}
					}
				}
			}
		}
		JOINT UpperLeg_R
		{
			OFFSET -2.19251 6.46944 0.0
			CHANNELS 6 Xposition Yposition Zposition Zrotation Xrotation Yrotation 
			JOINT LowerLeg_R
			{
				OFFSET -39.0811 -0.00228153 -0.0401928
				CHANNELS 6 Xposition Yposition Zposition Zrotation Xrotation Yrotation 
				JOINT Foot_R
				{
					OFFSET -40.9854 0.0 0.0
					CHANNELS 6 Xposition Yposition Zposition Zrotation Xrotation Yrotation 
					JOINT Toes_R
					{
						OFFSET -11.7543 0.0 0.0
						CHANNELS 6 Xposition Yposition Zposition Zrotation Xrotation Yrotation 
						End Site
						{
							OFFSET 0.0 0.0 0.0
						}
					}
				}
			}
		}
	}
}
MOTION
Frames:	8
Frame Time:	0.0333333
0.000000 0.000000 0.000000 0.000000 0.000000 -0.000000 0.564737 92.522100 3.630360 86.243600 -5.584640 4.158790 15.735700 0.000005 -0.000001 100.198000 86.911300 -107.541000 8.984550 -0.406207 -0.000000 -1.535870 1.687440 -14.660100 16.377300 -0.000001 -0.000001 0.115617 -1.109570 -6.839120 6.456720 -0.000001 -0.000000 2.294850 1.692790 -16.957000 12.994200 -0.242716 4.980390 -92.597300 8.762510 -73.417900 5.348090 -0.000007 -0.000001 -56.046900 0.146963 4.313100 24.328600 0.000019 0.000005 13.048700 25.895000 -27.954300 22.291600 -0.000001 0.000005 2.018970 4.864550 10.077900 12.994500 -0.242716 -4.980390 94.146800 -8.116740 -62.819300 -5.348130 -0.000001 -0.000004 -27.325600 -61.004500 -73.220600 -24.328900 0.000322 -0.000009 0.433399 2.552000 -9.663880 -22.291500 -0.000108 -0.000004 44.299700 5.522720 -7.478170 -2.192480 -6.469440 -0.000000 -172.550000 -8.411710 4.102960 39.081100 -0.000007 -0.000012 0.024598 -0.072804 18.668900 40.985400 -0.000006 -0.000013 0.659914 9.402170 -71.647100 11.754300 -0.000000 0.000003 -0.002925 0.207376 -8.162140 -2.192510 6.469440 -0.000001 176.547000 6.606670 -173.578000 -39.081100 -0.002282 -0.040193 -0.023745 0.132657 11.538100 -40.985400 0.000008 0.000006 -10.238200 12.539000 -66.420800 -11.754300 -0.000006 -0.000006 -0.010875 0.277729 -5.288150
0.000000 0.000000 0.000000 0.000000 0.000000 -0.000000 0.524267 92.534900 3.657440 86.255500 -5.506500 4.105830 15.735700 0.000005 -0.000001 100.218000 86.914400 -107.527000 8.984550 -0.406207 -0.000000 -1.543310 1.686180 -14.592600 16.377300 -0.000001 -0.000001 0.161448 -1.099690 -6.826380 6.456720 -0.000001 -0.000000 2.352650 1.663700 -16.878300 12.994200 -0.242716 4.980390 -92.600700 8.765390 -73.402200 5.348090 -0.000007 -0.000001 -56.050800 0.173405 4.379930 24.328600 0.000019 0.000005 13.080000 25.778000 -28.113500 22.291600 -0.000001 0.000005 2.051020 4.861060 10.145800 12.994500 -0.242716 -4.980390 94.129400 -8.074410 -62.796400 -5.348130 -0.000001 -0.000004 -27.665000 -60.958600 -73.299000 -24.328900 0.000322 -0.000009 0.425295 2.491990 -9.711590 -22.291500 -0.000108 -0.000004 44.174200 5.517100 -7.238730 -2.192480 -6.469440 -0.000000 -172.531000 -8.376230 4.144860 39.081100 -0.000007 -0.000012 0.023504 -0.070190 18.514000 40.985400 -0.000006 -0.000013 0.613877 9.428230 -71.657400 11.754300 -0.000000 0.000003 -0.003001 0.208241 -8.126910 -2.192510 6.469440 -0.000001 176.581000 6.584770 -173.565000 -39.081100 -0.002282 -0.040193 -0.023553 0.132527 11.469400 -40.985400 0.000008 0.000006 -10.192900 12.433000 -66.470900 -11.754300 -0.000006 -0.000006 -0.011231 0.280282 -5.183650
0.000000 0.000000 0.000000 0.000000 0.000000 -0.000000 0.466027 92.535800 3.669110 86.288700 -5.402920 4.015600 15.735700 0.000005 -0.000001 100.133000 86.934000 -107.411000 8.984550 -0.406207 -0.000000 -1.582130 1.670290 -14.529500 16.377300 -0.000001 -0.000001 0.297267 -1.126710 -6.806160 6.456720 -0.000001 -0.000000 2.372950 1.631950 -16.877900 12.994200 -0.242716 4.980390 -92.602600 8.754320 -73.371400 5.348090 -0.000007 -0.000001 -56.111900 0.187590 4.325830 24.328600 0.000019 0.000005 13.016100 25.760200 -28.008200 22.291600 -0.000001 0.000005 1.994750 4.861950 10.128600 12.994500 -0.242716 -4.980390 94.111400 -8.038940 -62.796700 -5.348130 -0.000001 -0.000004 -27.922700 -60.919900 -73.371000 -24.328900 0.000322 -0.000009 0.387488 2.276990 -9.685900 -22.291500 -0.000108 -0.000004 44.228000 5.516460 -7.212010 -2.192480 -6.469440 -0.000000 -172.559000 -8.250020 4.062430 39.081100 -0.000007 -0.000012 0.024078 -0.072126 18.461000 40.985400 -0.000006 -0.000013 0.572464 9.415600 -71.615500 11.754300 -0.000000 0.000003 -0.002924 0.207369 -8.162410 -2.192510 6.469440 -0.000001 176.583000 6.730320 -173.589000 -39.081100 -0.002282 -0.040193 -0.023141 0.131521 11.382600 -40.985400 0.000008 0.000006 -10.123000 12.462300 -66.432600 -11.754300 -0.000006 -0.000006 -0.010891 0.277846 -5.283350
0.000000 0.000000 0.000000 0.000000 0.000000 -0.000000 0.407729 92.538800 3.694730 86.256100 -5.352450 3.939450 15.735700 0.000005 -0.000001 100.129000 86.947400 -107.353000 8.984550 -0.406207 -0.000000 -1.610260 1.662590 -14.423500 16.377300 -0.000001 -0.000001 0.359201 -1.120060 -6.793290 6.456720 -0.000001 -0.000000 2.482560 1.617990 -16.857100 12.994200 -0.242716 4.980390 -92.598800 8.732310 -73.354900 5.348090 -0.000007 -0.000001 -56.195500 0.209490 4.294130 24.328600 0.000019 0.000005 13.006500 25.867300 -27.898400 22.291600 -0.000001 0.000005 1.946300 4.861210 10.143000 12.994500 -0.242716 -4.980390 94.101500 -8.017540 -62.791400 -5.348130 -0.000001 -0.000004 -27.963000 -60.840500 -73.293600 -24.328900 0.000322 -0.000009 0.367582 2.166840 -9.657090 -22.291500 -0.000108 -0.000004 44.242300 5.513430 -7.084730 -2.192480 -6.469440 -0.000000 -172.478000 -8.310830 4.027960 39.081100 -0.000007 -0.000012 0.023823 -0.071534 18.419600 40.985400 -0.000006 -0.000013 0.543691 9.509050 -71.621700 11.754300 -0.000000 0.000003 -0.002775 0.205665 -8.231760 -2.192510 6.469440 -0.000001 176.647000 6.828090 -173.600000 -39.081100 -0.002282 -0.040193 -0.023058 0.131966 11.310300 -40.985400 0.000008 0.000006 -10.132200 12.496400 -66.400700 -11.754300 -0.000006 -0.000006 -0.010835 0.277438 -5.300060
0.000000 0.000000 0.000000 0.000000 0.000000 -0.000000 0.356625 92.544300 3.717490 86.312200 -5.349040 3.902500 15.735700 0.000005 -0.000001 100.081000 86.952600 -107.278000 8.984550 -0.406207 -0.000000 -1.620820 1.654180 -14.366800 16.377300 -0.000001 -0.000001 0.500713 -1.107770 -6.770260 6.456720 -0.000001 -0.000000 2.505970 1.616260 -16.834600 12.994200 -0.242716 4.980390 -92.607600 8.739680 -73.315000 5.348090 -0.000007 -0.000001 -56.282600 0.206194 4.302950 24.328600 0.000019 0.000005 12.975100 25.913600 -27.799700 22.291600 -0.000001 0.000005 1.930500 4.863290 10.102500 12.994500 -0.242716 -4.980390 94.093300 -8.007040 -62.808100 -5.348130 -0.000001 -0.000004 -28.329900 -60.791500 -73.515600 -24.328900 0.000322 -0.000009 0.352340 2.064640 -9.714740 -22.291500 -0.000108 -0.000004 44.129400 5.514480 -7.128470 -2.192480 -6.469440 -0.000000 -172.493000 -8.348870 4.068750 39.081100 -0.000007 -0.000012 0.022642 -0.068491 18.293400 40.985400 -0.000006 -0.000013 0.505535 9.561330 -71.628300 11.754300 -0.000000 0.000003 -0.003064 0.208956 -8.097820 -2.192510 6.469440 -0.000001 176.623000 6.829320 -173.609000 -39.081100 -0.002282 -0.040193 -0.022766 0.130797 11.285900 -40.985400 0.000008 0.000006 -10.077500 12.498900 -66.423600 -11.754300 -0.000006 -0.000006 -0.010894 0.277865 -5.282610
0.000000 0.000000 0.000000 0.000000 0.000000 -0.000000 0.298793 92.546200 3.728700 86.313400 -5.337880 3.851180 15.735700 0.000005 -0.000001 99.989400 86.959700 -107.142000 8.984550 -0.406207 -0.000000 -1.635130 1.639450 -14.280000 16.377300 -0.000001 -0.000001 0.623514 -1.161580 -6.641270 6.456720 -0.000001 -0.000000 2.514970 1.607380 -16.914200 12.994200 -0.242716 4.980390 -92.624200 8.758510 -73.248300 5.348090 -0.000007 -0.000001 -56.364200 0.189430 4.336650 24.328600 0.000019 0.000005 12.991000 25.907800 -27.834700 22.291600 -0.000001 0.000005 1.870600 4.857580 10.213800 12.994500 -0.242716 -4.980390 94.087000 -7.988510 -62.790300 -5.348130 -0.000001 -0.000004 -28.139200 -60.653700 -73.345300 -24.328900 0.000322 -0.000009 0.307352 1.808590 -9.678440 -22.291500 -0.000108 -0.000004 44.283200 5.515260 -7.160990 -2.192480 -6.469440 -0.000000 -172.488000 -8.212550 4.052210 39.081100 -0.000007 -0.000012 0.023774 -0.072140 18.240100 40.985400 -0.000006 -0.000013 0.446793 9.474410 -71.628400 11.754300 -0.000000 0.000003 -0.003015 0.208403 -8.120320 -2.192510 6.469440 -0.000001 176.667000 6.836330 -173.631000 -39.081100 -0.002282 -0.040193 -0.022615 0.130399 11.255700 -40.985400 0.000008 0.000006 -10.072600 12.487800 -66.459200 -11.754300 -0.000006 -0.000006 -0.011363 0.281226 -5.145040
0.000000 0.000000 0.000000 0.000000 0.000000 -0.000000 0.244594 92.548500 3.752470 86.333300 -5.335930 3.829570 15.735700 0.000005 -0.000001 100.119000 86.953700 -107.243000 8.984550 -0.406207 -0.000000 -1.625650 1.652190 -14.222300 16.377300 -0.000001 -0.000001 0.753778 -1.209790 -6.592420 6.456720 -0.000001 -0.000000 2.556800 1.495400 -16.823600 12.994200 -0.242716 4.980390 -92.618700 8.745990 -73.259100 5.348090 -0.000007 -0.000001 -56.469500 0.214566 4.403220 24.328600 0.000019 0.000005 12.919900 25.745800 -27.838500 22.291600 -0.000001 0.000005 1.970570 4.861600 10.135400 12.994500 -0.242716 -4.980390 94.090100 -7.988150 -62.771400 -5.348130 -0.000001 -0.000004 -28.107900 -60.550100 -73.220600 -24.328900 0.000322 -0.000009 0.336131 1.962620 -9.750100 -22.291500 -0.000108 -0.000004 44.109100 5.510080 -6.945090 -2.192480 -6.469440 -0.000000 -172.449000 -8.302330 4.091570 39.081100 -0.000007 -0.000012 0.023312 -0.071074 18.159800 40.985400 -0.000006 -0.000013 0.412080 9.559830 -71.628300 11.754300 -0.000000 0.000003 -0.003027 0.208540 -8.114740 -2.192510 6.469440 -0.000001 176.671000 6.911000 -173.607000 -39.081100 -0.002282 -0.040193 -0.022537 0.130583 11.207600 -40.985400 0.000008 0.000006 -10.071500 12.537000 -66.421200 -11.754300 -0.000006 -0.000006 -0.010871 0.277704 -5.289170
0.000000 0.000000 0.000000 0.000000 0.000000 -0.000000 0.178358 92.545000 3.774740 86.301900 -5.363460 3.803270 15.735700 0.000005 -0.000001 100.265000 86.961500 -107.340000 8.984550 -0.406207 -0.000000 -1.644480 1.661800 -14.124100 16.377300 -0.000001 -0.000001 0.804651 -1.275030 -6.494650 6.456720 -0.000001 -0.000000 2.718330 1.371310 -16.813300 12.994200 -0.242716 4.980390 -92.620100 8.725500 -73.213600 5.348090 -0.000007 -0.000001 -56.582400 0.242006 4.462360 24.328600 0.000019 0.000005 12.979700 25.839200 -27.871700 22.291600 -0.000001 0.000005 1.970340 4.861080 10.145400 12.994500 -0.242716 -4.980390 94.094100 -7.994410 -62.766800 -5.348130 -0.000001 -0.000004 -28.188200 -60.418000 -73.301500 -24.328900 0.000322 -0.000009 0.321425 1.883350 -9.717750 -22.291500 -0.000108 -0.000004 44.079500 5.513440 -7.085350 -2.192480 -6.469440 -0.000000 -172.369000 -8.297990 4.103650 39.081100 -0.000007 -0.000012 0.022642 -0.069085 18.146400 40.985400 -0.000006 -0.000013 0.362898 9.566250 -71.636700 11.754300 -0.000000 0.000003 -0.003176 0.210208 -8.046870 -2.192510 6.469440 -0.000001 176.743000 6.907920 -173.604000 -39.081100 -0.002282 -0.040193 -0.022596 0.131112 11.188400 -40.985400 0.000008 0.000006 -10.031000 12.555900 -66.427300 -11.754300 -0.000006 -0.000006 -0.010949 0.278262 -5.266340
